<svg width="1200" height="630" viewBox="0 0 1200 630" fill="none" xmlns="http://www.w3.org/2000/svg">
<rect width="1200" height="630" fill="black"/>
<g filter="url(#filter0_i_3_2)">
<path d="M357.8 402C346.067 402 335.867 399.667 327.2 395C318.533 390.2 311.8 383.733 307 375.6C302.2 367.333 299.8 357.933 299.8 347.4C299.8 339.267 301.133 331.8 303.8 325C306.467 318.2 310.2 312.333 315 307.4C319.8 302.333 325.467 298.467 332 295.8C338.667 293 345.933 291.6 353.8 291.6C361.267 291.6 368.067 292.933 374.2 295.6C380.467 298.267 385.867 302 390.4 306.8C394.933 311.6 398.4 317.267 400.8 323.8C403.2 330.333 404.267 337.467 404 345.2L403.8 353.8H319.2L314.6 335.8H377.8L374.4 339.6V335.6C374.133 332.267 373.067 329.333 371.2 326.8C369.467 324.133 367.133 322.067 364.2 320.6C361.267 319.133 357.933 318.4 354.2 318.4C349 318.4 344.533 319.467 340.8 321.6C337.2 323.6 334.467 326.6 332.6 330.6C330.733 334.467 329.8 339.267 329.8 345C329.8 350.867 331 356 333.4 360.4C335.933 364.667 339.533 368 344.2 370.4C349 372.8 354.667 374 361.2 374C365.733 374 369.733 373.333 373.2 372C376.8 370.667 380.667 368.4 384.8 365.2L399.8 386.4C395.667 390 391.267 392.933 386.6 395.2C381.933 397.467 377.133 399.133 372.2 400.2C367.4 401.4 362.6 402 357.8 402ZM488.188 402.2C483.388 402.2 478.788 401.533 474.388 400.2C469.988 398.867 465.988 397.067 462.388 394.8C458.921 392.533 455.988 389.933 453.588 387C451.321 383.933 449.788 380.8 448.988 377.6L455.988 375.2L454.188 399.8H424.388V252H456.588V319.2L449.988 316.8C450.788 313.333 452.321 310.133 454.588 307.2C456.854 304.133 459.721 301.467 463.188 299.2C466.654 296.8 470.454 294.933 474.588 293.6C478.721 292.267 482.988 291.6 487.388 291.6C496.588 291.6 504.721 294 511.788 298.8C518.988 303.467 524.654 310 528.788 318.4C532.921 326.667 534.988 336.133 534.988 346.8C534.988 357.6 532.921 367.2 528.788 375.6C524.788 383.867 519.254 390.4 512.188 395.2C505.121 399.867 497.121 402.2 488.188 402.2ZM479.788 375.2C484.588 375.2 488.788 374 492.388 371.6C495.988 369.2 498.721 365.933 500.588 361.8C502.588 357.533 503.588 352.533 503.588 346.8C503.588 341.2 502.588 336.267 500.588 332C498.721 327.733 495.988 324.467 492.388 322.2C488.788 319.933 484.588 318.8 479.788 318.8C474.854 318.8 470.588 319.933 466.988 322.2C463.388 324.467 460.588 327.733 458.588 332C456.588 336.267 455.588 341.2 455.588 346.8C455.588 352.533 456.588 357.533 458.588 361.8C460.588 365.933 463.388 369.2 466.988 371.6C470.588 374 474.854 375.2 479.788 375.2ZM580.258 400V290H538.658V260H656.858V290H614.258V400H580.258ZM665.598 400V293.8H695.998L697.398 328.4L691.398 321.8C692.998 316.067 695.598 310.933 699.198 306.4C702.932 301.867 707.265 298.267 712.198 295.6C717.132 292.933 722.398 291.6 727.998 291.6C730.398 291.6 732.598 291.8 734.598 292.2C736.732 292.6 738.665 293.067 740.398 293.6L731.598 329C730.132 328.067 728.132 327.333 725.598 326.8C723.198 326.133 720.665 325.8 717.998 325.8C715.065 325.8 712.332 326.333 709.798 327.4C707.265 328.333 705.132 329.733 703.398 331.6C701.665 333.467 700.265 335.667 699.198 338.2C698.265 340.733 697.798 343.6 697.798 346.8V400H665.598ZM791.322 401.8C782.389 401.8 774.389 399.467 767.322 394.8C760.389 390 754.855 383.467 750.722 375.2C746.589 366.8 744.522 357.333 744.522 346.8C744.522 336 746.589 326.467 750.722 318.2C754.855 309.933 760.522 303.467 767.722 298.8C774.922 294 783.122 291.6 792.322 291.6C797.389 291.6 801.989 292.333 806.122 293.8C810.389 295.267 814.122 297.333 817.322 300C820.522 302.533 823.255 305.533 825.522 309C827.789 312.333 829.455 315.933 830.522 319.8L823.922 319V293.8H855.722V400H823.322V374.4L830.522 374.2C829.455 377.933 827.722 381.467 825.322 384.8C822.922 388.133 819.989 391.067 816.522 393.6C813.055 396.133 809.189 398.133 804.922 399.6C800.655 401.067 796.122 401.8 791.322 401.8ZM800.122 374.8C805.055 374.8 809.322 373.667 812.922 371.4C816.522 369.133 819.322 365.933 821.322 361.8C823.322 357.533 824.322 352.533 824.322 346.8C824.322 341.067 823.322 336.133 821.322 332C819.322 327.733 816.522 324.467 812.922 322.2C809.322 319.8 805.055 318.6 800.122 318.6C795.322 318.6 791.122 319.8 787.522 322.2C784.055 324.467 781.322 327.733 779.322 332C777.322 336.133 776.322 341.067 776.322 346.8C776.322 352.533 777.322 357.533 779.322 361.8C781.322 365.933 784.055 369.133 787.522 371.4C791.122 373.667 795.322 374.8 800.122 374.8ZM930.558 402C920.291 402 911.091 399.6 902.958 394.8C894.824 390 888.358 383.467 883.558 375.2C878.891 366.8 876.558 357.333 876.558 346.8C876.558 336.267 878.891 326.867 883.558 318.6C888.358 310.2 894.824 303.6 902.958 298.8C911.091 294 920.291 291.6 930.558 291.6C940.024 291.6 948.691 293.267 956.558 296.6C964.558 299.933 970.891 304.6 975.558 310.6L958.158 331.4C956.291 329.267 954.091 327.267 951.558 325.4C949.024 323.533 946.224 322.067 943.158 321C940.091 319.933 936.891 319.4 933.558 319.4C928.491 319.4 924.024 320.6 920.158 323C916.291 325.267 913.291 328.467 911.158 332.6C909.024 336.733 907.958 341.467 907.958 346.8C907.958 351.867 909.024 356.467 911.158 360.6C913.424 364.733 916.491 368 920.358 370.4C924.224 372.8 928.624 374 933.558 374C937.024 374 940.224 373.6 943.158 372.8C946.091 371.867 948.758 370.533 951.158 368.8C953.691 367.067 956.024 364.933 958.158 362.4L975.358 383.4C970.824 389.133 964.491 393.667 956.358 397C948.358 400.333 939.758 402 930.558 402ZM1023.74 368.8L1011.94 344.8L1061.54 293.8H1103.74L1023.74 368.8ZM992.942 400V252H1024.94V400H992.942ZM1064.94 400L1027.54 351.6L1050.14 334L1102.74 400H1064.94Z" fill="#E1E1E1"/>
</g>
<g filter="url(#filter1_i_3_2)">
<rect x="93" y="226" width="200" height="200" rx="35" fill="#D9D9D9"/>
</g>
<g filter="url(#filter2_i_3_2)">
<path d="M144 400.925C137.217 400.925 131.543 398.088 126.98 392.415C122.417 386.742 120.135 378.972 120.135 369.105C120.135 364.048 120.69 358.375 121.8 352.085C122.91 345.672 124.205 339.197 125.685 332.66C127.165 326.123 128.46 320.018 129.57 314.345C130.68 308.548 131.235 303.738 131.235 299.915C131.235 297.202 130.865 295.105 130.125 293.625C129.385 292.022 128.028 291.22 126.055 291.22C124.575 291.22 122.848 291.898 120.875 293.255C118.902 294.612 117.422 297.263 116.435 301.21L114.585 300.47C114.585 289.863 116.99 281.477 121.8 275.31C126.733 269.143 133.332 266.06 141.595 266.06C149.365 266.06 154.73 268.588 157.69 273.645C160.773 278.702 162.315 285.053 162.315 292.7C162.315 298.373 161.698 304.417 160.465 310.83C159.355 317.243 158.06 323.657 156.58 330.07C155.1 336.36 153.743 342.218 152.51 347.645C151.4 353.072 150.845 357.573 150.845 361.15C150.845 366.453 152.202 369.105 154.915 369.105C156.518 369.105 158.677 367.995 161.39 365.775C164.103 363.432 166.94 360.287 169.9 356.34C172.983 352.27 175.943 347.707 178.78 342.65C181.617 337.47 184.022 332.043 185.995 326.37C185.748 323.657 185.563 321.067 185.44 318.6C185.317 316.01 185.255 313.728 185.255 311.755C185.255 301.888 186.18 293.933 188.03 287.89C190.003 281.847 192.47 277.407 195.43 274.57C198.39 271.733 201.412 270.315 204.495 270.315C208.812 270.315 212.697 272.72 216.15 277.53C219.603 282.217 221.33 288.63 221.33 296.77C221.33 301.827 220.405 307.5 218.555 313.79C216.705 319.957 213.622 326.555 209.305 333.585C208.935 344.192 210.107 352.763 212.82 359.3C215.533 365.837 218.925 369.105 222.995 369.105C225.585 369.105 228.36 367.81 231.32 365.22C234.403 362.507 237.24 358.807 239.83 354.12C242.42 349.31 244.517 343.76 246.12 337.47C247.847 331.18 248.71 324.458 248.71 317.305C248.71 313.112 248.402 308.733 247.785 304.17C247.292 299.607 246.613 295.228 245.75 291.035C245.01 286.842 244.208 283.388 243.345 280.675C243.345 278.578 244.208 276.482 245.935 274.385C247.785 272.165 250.128 270.315 252.965 268.835C255.802 267.232 258.7 266.43 261.66 266.43C264.62 266.43 267.457 267.478 270.17 269.575C272.883 271.672 275.103 275.372 276.83 280.675C278.557 285.855 279.42 293.255 279.42 302.875C279.42 316.318 277.693 328.96 274.24 340.8C270.787 352.517 266.1 362.877 260.18 371.88C254.383 380.883 247.97 387.975 240.94 393.155C233.91 398.212 226.757 400.74 219.48 400.74C213.067 400.74 207.763 398.767 203.57 394.82C199.377 390.873 196.108 385.57 193.765 378.91C191.422 372.25 189.757 364.85 188.77 356.71C184.33 367.317 179.52 375.888 174.34 382.425C169.16 388.838 163.98 393.525 158.8 396.485C153.62 399.445 148.687 400.925 144 400.925Z" fill="black"/>
</g>
<defs>
<filter id="filter0_i_3_2" x="299.8" y="252" width="803.942" height="154.2" filterUnits="userSpaceOnUse" color-interpolation-filters="sRGB">
<feFlood flood-opacity="0" result="BackgroundImageFix"/>
<feBlend mode="normal" in="SourceGraphic" in2="BackgroundImageFix" result="shape"/>
<feColorMatrix in="SourceAlpha" type="matrix" values="0 0 0 0 0 0 0 0 0 0 0 0 0 0 0 0 0 0 127 0" result="hardAlpha"/>
<feOffset dy="4"/>
<feGaussianBlur stdDeviation="2"/>
<feComposite in2="hardAlpha" operator="arithmetic" k2="-1" k3="1"/>
<feColorMatrix type="matrix" values="0 0 0 0 0 0 0 0 0 0 0 0 0 0 0 0 0 0 0.25 0"/>
<feBlend mode="normal" in2="shape" result="effect1_innerShadow_3_2"/>
</filter>
<filter id="filter1_i_3_2" x="93" y="226" width="200" height="204" filterUnits="userSpaceOnUse" color-interpolation-filters="sRGB">
<feFlood flood-opacity="0" result="BackgroundImageFix"/>
<feBlend mode="normal" in="SourceGraphic" in2="BackgroundImageFix" result="shape"/>
<feColorMatrix in="SourceAlpha" type="matrix" values="0 0 0 0 0 0 0 0 0 0 0 0 0 0 0 0 0 0 127 0" result="hardAlpha"/>
<feOffset dy="4"/>
<feGaussianBlur stdDeviation="2"/>
<feComposite in2="hardAlpha" operator="arithmetic" k2="-1" k3="1"/>
<feColorMatrix type="matrix" values="0 0 0 0 0 0 0 0 0 0 0 0 0 0 0 0 0 0 0.25 0"/>
<feBlend mode="normal" in2="shape" result="effect1_innerShadow_3_2"/>
</filter>
<filter id="filter2_i_3_2" x="114.585" y="266.06" width="164.835" height="138.865" filterUnits="userSpaceOnUse" color-interpolation-filters="sRGB">
<feFlood flood-opacity="0" result="BackgroundImageFix"/>
<feBlend mode="normal" in="SourceGraphic" in2="BackgroundImageFix" result="shape"/>
<feColorMatrix in="SourceAlpha" type="matrix" values="0 0 0 0 0 0 0 0 0 0 0 0 0 0 0 0 0 0 127 0" result="hardAlpha"/>
<feOffset dy="4"/>
<feGaussianBlur stdDeviation="2"/>
<feComposite in2="hardAlpha" operator="arithmetic" k2="-1" k3="1"/>
<feColorMatrix type="matrix" values="0 0 0 0 0 0 0 0 0 0 0 0 0 0 0 0 0 0 0.25 0"/>
<feBlend mode="normal" in2="shape" result="effect1_innerShadow_3_2"/>
</filter>
</defs>
</svg>
